<svg width="150" height="29" viewBox="0 0 150 29" fill="none" xmlns="http://www.w3.org/2000/svg">
<path d="M14.04 0.519999L13.296 4.792H9.12L5.856 23.224H10.032L9.288 27.496H0.12L4.872 0.519999H14.04ZM23.8849 15.424L27.6289 22H21.6769L19.9489 18.952L17.6929 22H11.8369L17.6449 14.872L13.9969 8.464H19.9489L21.6769 11.536L23.9569 8.464H29.8129L23.8849 15.424ZM37.1801 27.496H28.0121L28.7561 23.224H32.9321L36.1961 4.792H32.0201L32.7641 0.519999H41.9321L37.1801 27.496ZM48.753 16.552C48.737 16.616 48.729 16.696 48.729 16.792C48.729 17.24 49.017 17.464 49.593 17.464H50.865L50.049 22H48.033C44.881 22 43.305 20.664 43.305 17.992C43.305 17.512 43.353 17 43.449 16.456L44.073 12.904H42.393L43.185 8.464H44.865L45.441 5.2H50.769L50.193 8.464H52.401L51.609 12.904H49.401L48.753 16.552ZM58.4861 22.168C57.2861 22.168 56.2301 21.936 55.3181 21.472C54.4061 21.008 53.6941 20.352 53.1821 19.504C52.6701 18.64 52.4141 17.64 52.4141 16.504C52.4141 14.936 52.7821 13.528 53.5181 12.28C54.2701 11.032 55.2941 10.056 56.5901 9.352C57.8861 8.648 59.3341 8.296 60.9341 8.296C62.1341 8.296 63.1901 8.536 64.1021 9.016C65.0141 9.48 65.7261 10.144 66.2381 11.008C66.7501 11.856 67.0061 12.848 67.0061 13.984C67.0061 15.552 66.6381 16.96 65.9021 18.208C65.1661 19.456 64.1501 20.432 62.8541 21.136C61.5581 21.824 60.1021 22.168 58.4861 22.168ZM59.3021 17.56C59.9901 17.56 60.5341 17.248 60.9341 16.624C61.3341 16 61.5341 15.304 61.5341 14.536C61.5341 13.992 61.3981 13.584 61.1261 13.312C60.8701 13.04 60.5341 12.904 60.1181 12.904C59.4301 12.904 58.8861 13.216 58.4861 13.84C58.0861 14.464 57.8861 15.16 57.8861 15.928C57.8861 16.472 58.0141 16.88 58.2701 17.152C58.5261 17.424 58.8701 17.56 59.3021 17.56ZM67.8159 15.232C68.0719 13.808 68.5359 12.576 69.2079 11.536C69.8799 10.48 70.6879 9.68 71.6319 9.136C72.5759 8.576 73.5759 8.296 74.6319 8.296C75.5119 8.296 76.2319 8.48 76.7919 8.848C77.3679 9.2 77.7679 9.688 77.9919 10.312L79.0719 4.24H84.3999L81.2559 22H75.9279L76.2639 20.152C75.8159 20.776 75.2399 21.272 74.5359 21.64C73.8479 21.992 73.0639 22.168 72.1839 22.168C70.8239 22.168 69.7279 21.712 68.8959 20.8C68.0639 19.888 67.6479 18.624 67.6479 17.008C67.6479 16.4 67.7039 15.808 67.8159 15.232ZM77.1519 15.232C77.1839 15.088 77.1999 14.896 77.1999 14.656C77.1999 14.112 77.0559 13.696 76.7679 13.408C76.4799 13.104 76.0879 12.952 75.5919 12.952C75.0159 12.952 74.5039 13.152 74.0559 13.552C73.6239 13.952 73.3439 14.512 73.2159 15.232C73.1839 15.376 73.1679 15.568 73.1679 15.808C73.1679 16.352 73.3119 16.776 73.5999 17.08C73.8879 17.368 74.2799 17.512 74.7759 17.512C75.3519 17.512 75.8559 17.312 76.2879 16.912C76.7359 16.512 77.0239 15.952 77.1519 15.232ZM90.0564 22.168C88.8564 22.168 87.8004 21.936 86.8884 21.472C85.9764 21.008 85.2644 20.352 84.7524 19.504C84.2404 18.64 83.9844 17.64 83.9844 16.504C83.9844 14.936 84.3524 13.528 85.0884 12.28C85.8404 11.032 86.8644 10.056 88.1604 9.352C89.4564 8.648 90.9044 8.296 92.5044 8.296C93.7044 8.296 94.7604 8.536 95.6724 9.016C96.5844 9.48 97.2964 10.144 97.8084 11.008C98.3204 11.856 98.5764 12.848 98.5764 13.984C98.5764 15.552 98.2084 16.96 97.4724 18.208C96.7364 19.456 95.7204 20.432 94.4244 21.136C93.1284 21.824 91.6724 22.168 90.0564 22.168ZM90.8724 17.56C91.5604 17.56 92.1044 17.248 92.5044 16.624C92.9044 16 93.1044 15.304 93.1044 14.536C93.1044 13.992 92.9684 13.584 92.6964 13.312C92.4404 13.04 92.1044 12.904 91.6884 12.904C91.0004 12.904 90.4564 13.216 90.0564 13.84C89.6564 14.464 89.4564 15.16 89.4564 15.928C89.4564 16.472 89.5844 16.88 89.8404 17.152C90.0964 17.424 90.4404 17.56 90.8724 17.56ZM110.258 19.432H104.594L103.298 22H97.7062L106.922 5.008H113.066L116.258 22H110.642L110.258 19.432ZM109.682 15.424L108.986 10.696L106.61 15.424H109.682ZM124.861 10.312C125.309 9.688 125.877 9.2 126.565 8.848C127.269 8.48 128.061 8.296 128.941 8.296C130.301 8.296 131.397 8.752 132.229 9.664C133.061 10.576 133.477 11.84 133.477 13.456C133.477 14.064 133.421 14.656 133.309 15.232C133.053 16.656 132.589 17.896 131.917 18.952C131.245 19.992 130.437 20.792 129.493 21.352C128.549 21.896 127.549 22.168 126.493 22.168C125.613 22.168 124.885 21.992 124.309 21.64C123.749 21.272 123.357 20.776 123.133 20.152L121.669 28.48H116.341L119.869 8.464H125.197L124.861 10.312ZM127.909 15.232C127.941 15.088 127.957 14.896 127.957 14.656C127.957 14.112 127.813 13.696 127.525 13.408C127.237 13.104 126.845 12.952 126.349 12.952C125.773 12.952 125.261 13.152 124.813 13.552C124.381 13.952 124.101 14.512 123.973 15.232C123.941 15.376 123.925 15.568 123.925 15.808C123.925 16.352 124.069 16.776 124.357 17.08C124.645 17.368 125.037 17.512 125.533 17.512C126.109 17.512 126.613 17.312 127.045 16.912C127.493 16.512 127.781 15.952 127.909 15.232ZM141.173 10.312C141.621 9.688 142.189 9.2 142.877 8.848C143.581 8.48 144.373 8.296 145.253 8.296C146.613 8.296 147.709 8.752 148.541 9.664C149.373 10.576 149.789 11.84 149.789 13.456C149.789 14.064 149.733 14.656 149.621 15.232C149.365 16.656 148.901 17.896 148.229 18.952C147.557 19.992 146.749 20.792 145.805 21.352C144.861 21.896 143.861 22.168 142.805 22.168C141.925 22.168 141.197 21.992 140.621 21.64C140.061 21.272 139.669 20.776 139.445 20.152L137.981 28.48H132.653L136.181 8.464H141.509L141.173 10.312ZM144.221 15.232C144.253 15.088 144.269 14.896 144.269 14.656C144.269 14.112 144.125 13.696 143.837 13.408C143.549 13.104 143.157 12.952 142.661 12.952C142.085 12.952 141.573 13.152 141.125 13.552C140.693 13.952 140.413 14.512 140.285 15.232C140.253 15.376 140.237 15.568 140.237 15.808C140.237 16.352 140.381 16.776 140.669 17.08C140.957 17.368 141.349 17.512 141.845 17.512C142.421 17.512 142.925 17.312 143.357 16.912C143.805 16.512 144.093 15.952 144.221 15.232Z" fill="url(#paint0_linear)"/>
<defs>
<linearGradient id="paint0_linear" x1="151" y1="32" x2="-2.96141e-06" y2="32" gradientUnits="userSpaceOnUse">
<stop offset="0.114898" stop-color="#FF002E"/>
<stop offset="1" stop-color="#FF9900"/>
</linearGradient>
</defs>
</svg>
